<?xml version="1.0" encoding="UTF-8"?>
<svg id="NOTAITION-ARROW-01" xmlns="http://www.w3.org/2000/svg" viewBox="0 0 640 640">
  <defs>
    <style>.cls-1{fill:#231f20;}</style>
  </defs>
  <circle class="cls-1" cx="101.51" cy="320" r="37.5" />
  <circle class="cls-1" cx="189.32" cy="320" r="37.5" />
  <path class="cls-1"
    d="m523.47,266.97l-175.01-175.01c-14.64-14.64-38.39-14.64-53.03,0-14.64,14.64-14.64,38.39,0,53.03l137.51,137.51h-155.81c-20.71,0-37.5,16.79-37.5,37.5s16.79,37.5,37.5,37.5h155.81l-137.51,137.51c-14.64,14.64-14.64,38.39,0,53.03,14.65,14.64,38.39,14.64,53.03,0,0,0,0,0,0,0l175.01-175.01,53.03-53.03-53.03-53.03Z" />
</svg>