<?xml version="1.0" encoding="UTF-8"?><svg id="D_C" xmlns="http://www.w3.org/2000/svg" viewBox="0 0 640 640"><defs><style>.cls-1{fill:none;stroke:#231f20;stroke-linecap:round;stroke-miterlimit:10;stroke-width:3px;}</style></defs><g id="Layer_11"><line class="cls-1" x1="403.68" y1="442.88" x2="351.55" y2="442.88"/><path class="cls-1" d="m475.5,255.8v-13.14c0-5.41-4.38-9.78-9.78-9.78h-161.45v133.98c0,5.41-4.38,9.78-9.78,9.78h-23.53c-5.41,0-9.78-4.38-9.78-9.78v-133.98h-47.04v148.58c0,5.41-4.4,9.78-9.78,9.78h-16.05c-14.26,0-25.81,11.57-25.81,25.83s11.55,25.81,25.81,25.81h143.59v-81.39c0-8.71,10.54-13.06,16.71-6.9l88.28,88.28h28.84c5.41,0,9.78-4.38,9.78-9.78v-127.03h-74.76l-33.93-25.15,33.93-25.12h74.76Z"/><path class="cls-1" d="m204.34,178.76h-17.49v.07c-13.58.76-24.36,11.96-24.36,25.73v212.5c0-14.26,11.55-25.83,25.81-25.83h16.05c5.38,0,9.78-4.38,9.78-9.78v-192.91c0-5.41-4.4-9.78-9.78-9.78Z"/><path class="cls-1" d="m294.48,171.16h-23.53c-5.41,0-9.78,4.38-9.78,9.78v185.91c0,5.41,4.38,9.78,9.78,9.78h23.53c5.41,0,9.78-4.38,9.78-9.78v-185.91c0-5.41-4.38-9.78-9.78-9.78Z"/><path class="cls-1" d="m448.15,454.16l-11.28-11.28-88.28-88.28c-6.16-6.16-16.71-1.81-16.71,6.9v99.56c0,5.41,4.4,9.78,9.78,9.78h99.59c8.71,0,13.06-10.52,6.9-16.68Zm-54.16-2.89h-32.76c-4.92,0-9-3.64-9.69-8.39-.07-.44-.1-.93-.1-1.39v-32.73c0-8.73,10.54-13.09,16.71-6.92l32.76,32.75c2.4,2.4,3.2,5.46,2.76,8.29-.66,4.45-4.35,8.39-9.69,8.39Z"/><path class="cls-1" d="m403.68,442.88c-.66,4.45-4.35,8.39-9.69,8.39h-32.76c-4.92,0-9-3.64-9.69-8.39-.07-.44-.1-.93-.1-1.39v-32.73c0-8.73,10.54-13.09,16.71-6.92l32.76,32.75c2.4,2.4,3.2,5.46,2.76,8.29Z"/><path class="cls-1" d="m403.68,442.88c-.66,4.45-4.35,8.39-9.69,8.39h-32.76c-4.92,0-9-3.64-9.69-8.39-.07-.44-.1-.93-.1-1.39v-32.73c0-8.73,10.54-13.09,16.71-6.92l32.76,32.75c2.4,2.4,3.2,5.46,2.76,8.29Z"/><line class="cls-1" x1="261.16" y1="348.38" x2="278.96" y2="348.38"/><line class="cls-1" x1="261.16" y1="318.24" x2="278.96" y2="318.24"/><line class="cls-1" x1="261.16" y1="288.11" x2="278.96" y2="288.11"/><line class="cls-1" x1="261.16" y1="257.97" x2="278.96" y2="257.97"/><line class="cls-1" x1="261.16" y1="227.84" x2="278.96" y2="227.84"/><line class="cls-1" x1="261.16" y1="197.7" x2="278.96" y2="197.7"/><path class="cls-1" d="m520.37,255.8h-119.62l-33.93,25.12,33.93,25.15h119.62c4.3,0,7.8-11.25,7.8-25.15s-3.5-25.12-7.8-25.12Z"/></g></svg>