<?xml version="1.0" encoding="UTF-8"?><svg id="PC" xmlns="http://www.w3.org/2000/svg" viewBox="0 0 640 640"><defs><style>.cls-1{fill:#ed2024;}.cls-2{fill:none;}.cls-3{fill:#ed1c24;}.cls-4{fill:#6abd45;}.cls-5{fill:#3953a4;}</style></defs><g id="Layer_7"><g><g><path class="cls-4" d="m235.98,406.97h-75.38c-10.64,0-19.26-8.63-19.26-19.24v-236.31c0-10.64,8.63-19.26,19.26-19.26h75.38c-10.64,0-19.26,8.63-19.26,19.26v236.31c0,10.62,8.63,19.24,19.26,19.24Z"/><path class="cls-4" d="m478.17,185.1v148.63c0,10.64-8.63,19.24-19.26,19.24h-189.25c-10.62,0-19.24-8.61-19.24-19.24v-148.63c0-10.64,8.63-19.24,19.24-19.24h189.25c10.64,0,19.26,8.61,19.26,19.24Z"/><rect class="cls-4" x="64" y="414.45" width="176.77" height="93.39"/><path class="cls-4" d="m576,492.6v15.24h-241.65v-21.21h235.68c3.29,0,5.97,2.68,5.97,5.97Z"/><path class="cls-4" d="m289.96,433.53c-.82,0-1.61.08-2.39.23-5.34,1.11-9.36,5.84-9.36,11.54s4.02,10.41,9.36,11.52c.78.15,1.57.23,2.39.23,6.51,0,11.77-5.26,11.77-11.75s-5.26-11.77-11.77-11.77Z"/></g><g><path class="cls-1" d="m160.6,406.97h-53.88c-11.29,0-20.44-9.15-20.44-20.46v-148.63c0-8.02,4.79-15.24,12.19-18.34l42.86-17.95v186.13c0,10.62,8.63,19.24,19.26,19.24Z"/><path class="cls-1" d="m492.05,132.16H235.98c-10.64,0-19.26,8.63-19.26,19.26v236.31c0,10.62,8.63,19.24,19.26,19.24h256.07c10.64,0,19.27-8.63,19.27-19.24v-236.31c0-10.64-8.63-19.26-19.27-19.26Zm-13.88,201.57c0,10.64-8.63,19.24-19.26,19.24h-189.25c-10.62,0-19.24-8.61-19.24-19.24v-148.63c0-10.64,8.63-19.24,19.24-19.24h189.25c10.64,0,19.26,8.61,19.26,19.24v148.63Z"/><path class="cls-1" d="m555.69,474.97v11.66h-204.23v-15.5h200.39c2.11,0,3.83,1.72,3.83,3.83Z"/><path class="cls-1" d="m321.54,433.53c-.86,0-1.7.08-2.51.27-5.28,1.15-9.23,5.84-9.23,11.5s3.96,10.32,9.23,11.47c.82.19,1.65.27,2.51.27,6.51,0,11.77-5.26,11.77-11.75s-5.26-11.77-11.77-11.77Z"/><path class="cls-3" d="m240.77,414.45v93.39h13.38v-15.24c0-3.29,2.66-5.97,5.97-5.97h13.28v-11.66c0-2.11,1.72-3.83,3.83-3.83h259.03v-56.68H240.77Zm49.19,42.59c-.82,0-1.61-.08-2.39-.23-.78.15-1.59.23-2.41.23-6.51,0-11.77-5.26-11.77-11.75s5.26-11.77,11.77-11.77c.82,0,1.63.08,2.41.23.78-.15,1.57-.23,2.39-.23,6.51,0,11.77,5.26,11.77,11.77s-5.26,11.75-11.77,11.75Zm31.58,0c-.86,0-1.7-.08-2.51-.27-.82.19-1.65.27-2.53.27-6.49,0-11.75-5.26-11.75-11.75s5.26-11.77,11.75-11.77c.88,0,1.72.08,2.53.27.82-.19,1.65-.27,2.51-.27,6.51,0,11.77,5.26,11.77,11.77s-5.26,11.75-11.77,11.75Z"/></g><g><path class="cls-5" d="m287.57,456.81c-.78.15-1.59.23-2.41.23-6.51,0-11.77-5.26-11.77-11.75s5.26-11.77,11.77-11.77c.82,0,1.63.08,2.41.23-5.34,1.11-9.36,5.84-9.36,11.54s4.02,10.41,9.36,11.52Z"/><path class="cls-5" d="m319.03,456.77c-.82.19-1.65.27-2.53.27-6.49,0-11.75-5.26-11.75-11.75s5.26-11.77,11.75-11.77c.88,0,1.72.08,2.53.27-5.28,1.15-9.23,5.84-9.23,11.5s3.96,10.32,9.23,11.47Z"/><path class="cls-5" d="m277.23,471.13c-2.11,0-3.83,1.72-3.83,3.83v11.66h-13.28c-3.31,0-5.97,2.68-5.97,5.97v15.24h80.2v-21.21h17.11v-15.5h-74.23Z"/><rect class="cls-5" x="165.93" y="406.97" width="267.67" height="7.48"/></g></g><rect class="cls-2" width="640" height="640"/></g></svg>