<?xml version="1.0" encoding="UTF-8"?><svg id="Layer_2" xmlns="http://www.w3.org/2000/svg" viewBox="0 0 1041.98 425.45"><defs><style>.cls-1{letter-spacing:-.15em;}.cls-2{letter-spacing:0em;}.cls-3{letter-spacing:-.13em;}.cls-4{letter-spacing:-.08em;}.cls-5{letter-spacing:-.08em;}.cls-6{letter-spacing:-.07em;}.cls-7{letter-spacing:0em;}.cls-8{letter-spacing:-.03em;}.cls-9{letter-spacing:0em;}.cls-10{stroke-width:5px;}.cls-10,.cls-11,.cls-12{stroke:#231f20;stroke-miterlimit:10;}.cls-10,.cls-12{fill:none;}.cls-13{letter-spacing:-.59em;}.cls-14{letter-spacing:-.04em;}.cls-15{letter-spacing:-.02em;}.cls-16{letter-spacing:-.11em;}.cls-17{letter-spacing:-.1em;}.cls-18{letter-spacing:-.12em;}.cls-19{letter-spacing:-.03em;}.cls-20{letter-spacing:-.1em;}.cls-21{letter-spacing:-.17em;}.cls-22{letter-spacing:-.02em;}.cls-23{letter-spacing:.02em;}.cls-24{letter-spacing:-.09em;}.cls-25,.cls-26,.cls-27,.cls-28,.cls-29{font-size:8px;}.cls-25,.cls-30{letter-spacing:-.1em;}.cls-31{letter-spacing:-.03em;}.cls-32{font-family:YuGothic-Medium, 'Yu Gothic';font-weight:500;}.cls-32,.cls-33{fill:#231f20;}.cls-32,.cls-34{font-size:10px;}.cls-35{letter-spacing:-.07em;}.cls-36{letter-spacing:-.06em;}.cls-37{letter-spacing:-.02em;}.cls-38{letter-spacing:-.05em;}.cls-39{letter-spacing:-.16em;}.cls-40{letter-spacing:-.11em;}.cls-41{letter-spacing:-.08em;}.cls-42{letter-spacing:-.02em;}.cls-33{font-family:YuGothic-Regular, 'Yu Gothic';}.cls-43{letter-spacing:-.05em;}.cls-44{letter-spacing:-.13em;}.cls-45{letter-spacing:-.07em;}.cls-46{letter-spacing:-.01em;}.cls-47{letter-spacing:-.07em;}.cls-48{letter-spacing:-.06em;}.cls-49{letter-spacing:-.03em;}.cls-50{letter-spacing:-.11em;}.cls-51{letter-spacing:-.15em;}.cls-52{letter-spacing:-.21em;}.cls-53{letter-spacing:-.13em;}.cls-54{letter-spacing:-.06em;}.cls-55{letter-spacing:-.05em;}.cls-56{letter-spacing:-.14em;}.cls-57{letter-spacing:-.04em;}.cls-58{letter-spacing:-.05em;}.cls-59{letter-spacing:-.08em;}.cls-60{letter-spacing:.02em;}.cls-61{letter-spacing:-.13em;}.cls-62{letter-spacing:-.07em;}.cls-63{letter-spacing:-.06em;}.cls-64{letter-spacing:-.03em;}.cls-65{letter-spacing:-.14em;}.cls-27,.cls-66{letter-spacing:-.05em;}.cls-67{letter-spacing:-.1em;}.cls-68{letter-spacing:-.18em;}.cls-69{letter-spacing:-.03em;}.cls-70{letter-spacing:-.1em;}.cls-71{letter-spacing:-.01em;}.cls-72{letter-spacing:-.03em;}.cls-28,.cls-73{letter-spacing:-.17em;}.cls-74{letter-spacing:-.08em;}.cls-75{letter-spacing:-.18em;}.cls-76{letter-spacing:-.16em;}.cls-77{letter-spacing:-.03em;}.cls-78{letter-spacing:-.1em;}.cls-79{letter-spacing:-.06em;}.cls-80{letter-spacing:-.1em;}.cls-81{letter-spacing:-.05em;}.cls-82{letter-spacing:-.53em;}.cls-83{letter-spacing:0em;}.cls-84{letter-spacing:-.06em;}.cls-85{letter-spacing:-.05em;}.cls-86{letter-spacing:-.04em;}.cls-87{letter-spacing:-.17em;}.cls-88{letter-spacing:-.17em;}.cls-89{letter-spacing:0em;}.cls-90{letter-spacing:-.5em;}.cls-91{letter-spacing:-.02em;}.cls-92{letter-spacing:-.12em;}.cls-93{letter-spacing:-.11em;}.cls-94{letter-spacing:-.17em;}.cls-95{letter-spacing:-.06em;}.cls-96{letter-spacing:-.56em;}.cls-97{letter-spacing:-.6em;}.cls-98{letter-spacing:-.08em;}.cls-99{letter-spacing:-.07em;}.cls-100{letter-spacing:-.05em;}.cls-101{letter-spacing:-.07em;}.cls-102{letter-spacing:-.05em;}.cls-103{letter-spacing:-.02em;}.cls-104{letter-spacing:-.04em;}.cls-105{letter-spacing:-.12em;}.cls-106{letter-spacing:-.04em;}.cls-107{letter-spacing:-.03em;}.cls-108{letter-spacing:-.08em;}.cls-109{letter-spacing:0em;}.cls-110{letter-spacing:0em;}.cls-111{letter-spacing:-.05em;}.cls-112{letter-spacing:-.19em;}.cls-113{letter-spacing:-.09em;}.cls-114{letter-spacing:-.06em;}.cls-115{letter-spacing:-.04em;}.cls-116{letter-spacing:0em;}.cls-117{letter-spacing:-.07em;}.cls-118{letter-spacing:0em;}.cls-119{letter-spacing:-.21em;}.cls-120{letter-spacing:-.11em;}.cls-121{letter-spacing:-.16em;}.cls-122{letter-spacing:-.11em;}.cls-123{letter-spacing:-.06em;}.cls-124{letter-spacing:-.07em;}.cls-125{letter-spacing:-.17em;}.cls-126{letter-spacing:-.08em;}.cls-127{letter-spacing:-.07em;}.cls-128{letter-spacing:-.05em;}.cls-129{letter-spacing:-.01em;}.cls-130{letter-spacing:-.16em;}.cls-131{letter-spacing:-.14em;}.cls-132{letter-spacing:-.07em;}.cls-133{letter-spacing:-.1em;}.cls-134{letter-spacing:-.08em;}.cls-135{letter-spacing:-.06em;}.cls-136{letter-spacing:-.19em;}.cls-137{letter-spacing:0em;}.cls-138{letter-spacing:-.13em;}.cls-139{letter-spacing:-.07em;}.cls-140{letter-spacing:-.13em;}.cls-11{fill:#fff;stroke-width:.25px;}.cls-141{letter-spacing:-.1em;}.cls-142{letter-spacing:-.03em;}.cls-143{letter-spacing:-.09em;}.cls-144{letter-spacing:-.25em;}.cls-12{stroke-width:.5px;}.cls-145{letter-spacing:-.5em;}.cls-146{letter-spacing:-.11em;}.cls-147{letter-spacing:-.04em;}.cls-148{letter-spacing:-.01em;}.cls-149{letter-spacing:-.14em;}.cls-150{letter-spacing:0em;}.cls-151{letter-spacing:-.09em;}.cls-152{letter-spacing:-.16em;}.cls-153{letter-spacing:-.02em;}.cls-154{letter-spacing:-.06em;}.cls-155{letter-spacing:-.05em;}.cls-156{letter-spacing:-.1em;}.cls-157{letter-spacing:-.12em;}.cls-158{letter-spacing:-.12em;}.cls-29{letter-spacing:-.21em;}.cls-159{letter-spacing:-.11em;}.cls-160{letter-spacing:-.06em;}.cls-161{letter-spacing:-.09em;}.cls-162{letter-spacing:-.09em;}.cls-163{letter-spacing:-.09em;}.cls-164{letter-spacing:-.1em;}.cls-165{letter-spacing:-.01em;}.cls-166{letter-spacing:-.02em;}</style></defs><g id="AREA"><polygon class="cls-11" points="744.22 .12 .12 .12 .12 425.32 744.22 425.32 1041.86 425.32 1041.86 .12 744.22 .12"/></g><g id="Layer_2-2"><text class="cls-32" transform="translate(17.8 114.1)"><tspan class="cls-95" x="0" y="0">「</tspan><tspan class="cls-40" x="9.35" y="0">と</tspan><tspan class="cls-108" x="18.26" y="0">あ</tspan><tspan class="cls-6" x="27.44" y="0">る</tspan><tspan x="36.75" y="0">出来</tspan><tspan class="cls-83" x="56.75" y="0">事</tspan><tspan class="cls-150" x="66.72" y="0">の</tspan><tspan x="76.68" y="0">設計</tspan><tspan class="cls-90" x="96.68" y="0">」</tspan><tspan class="cls-15" x="101.64" y="0">は</tspan><tspan class="cls-145" x="111.49" y="0">、</tspan><tspan x="116.49" y="0">2020</tspan><tspan class="cls-83" x="138.7" y="0">年</tspan><tspan class="cls-150" x="148.67" y="0">の</tspan><tspan x="158.63" y="0">1</tspan><tspan class="cls-37" x="164.18" y="0">1</tspan><tspan class="cls-155" x="169.54" y="0">月</tspan><tspan class="cls-77" x="179.02" y="0">に</tspan><tspan class="cls-117" x="188.69" y="0">始</tspan><tspan class="cls-112" x="197.97" y="0">ま</tspan><tspan class="cls-5" x="206.04" y="0">っ</tspan><tspan class="cls-153" x="215.22" y="0">た</tspan><tspan x="225.02" y="0">実</tspan><tspan class="cls-64" x="235.02" y="0">験</tspan><tspan class="cls-91" x="244.76" y="0">で</tspan><tspan class="cls-108" x="254.59" y="0">あ</tspan><tspan class="cls-6" x="263.77" y="0">る</tspan><tspan class="cls-145" x="273.08" y="0">。</tspan><tspan x="5" y="18">2021</tspan><tspan class="cls-83" x="27.21" y="18">年</tspan><tspan class="cls-150" x="37.18" y="18">の</tspan><tspan class="cls-37" x="47.14" y="18">2</tspan><tspan class="cls-155" x="52.5" y="18">月</tspan><tspan class="cls-77" x="61.98" y="18">に</tspan><tspan x="71.65" y="18">発</tspan><tspan class="cls-35" x="81.65" y="18">表</tspan><tspan class="cls-159" x="90.97" y="18">さ</tspan><tspan class="cls-2" x="99.87" y="18">れ</tspan><tspan class="cls-153" x="109.88" y="18">た</tspan><tspan x="119.68" y="18">第</tspan><tspan class="cls-83" x="129.68" y="18">一</tspan><tspan class="cls-150" x="139.65" y="18">の</tspan><tspan x="149.61" y="18">作</tspan><tspan class="cls-64" x="159.61" y="18">品</tspan><tspan class="cls-71" x="169.35" y="18">で</tspan><tspan class="cls-15" x="179.22" y="18">は</tspan><tspan class="cls-145" x="189.07" y="18">、</tspan><tspan x="194.07" y="18">生活空</tspan><tspan class="cls-83" x="224.07" y="18">間</tspan><tspan class="cls-77" x="234.04" y="18">に</tspan><tspan x="243.71" y="18">放</tspan><tspan class="cls-35" x="253.71" y="18">置</tspan><tspan class="cls-159" x="263.03" y="18">さ</tspan><tspan class="cls-2" x="271.93" y="18">れ</tspan><tspan class="cls-153" x="281.94" y="18">た</tspan><tspan x="291.74" y="18">物体形</tspan><tspan class="cls-150" x="321.74" y="18">状</tspan><tspan class="cls-2" x="331.7" y="18">が</tspan><tspan x="341.71" y="18">調</tspan><tspan class="cls-35" x="351.71" y="18">査</tspan><tspan class="cls-159" x="361.03" y="18">さ</tspan><tspan class="cls-9" x="369.94" y="18">れ</tspan><tspan class="cls-97" x="379.99" y="18">、</tspan><tspan class="cls-70" x="383.96" y="18">ド</tspan><tspan class="cls-48" x="392.97" y="18">ー</tspan><tspan class="cls-139" x="402.35" y="18">ナ</tspan><tspan class="cls-148" x="411.65" y="18">ツ</tspan><tspan class="cls-60" x="421.52" y="18">や</tspan><tspan class="cls-155" x="431.77" y="18">空</tspan><tspan class="cls-162" x="441.25" y="18">き</tspan><tspan x="450.33" y="18">缶</tspan><tspan class="cls-83" x="460.33" y="18">等</tspan><tspan class="cls-150" x="470.3" y="18">の</tspan><tspan x="480.26" y="18">物</tspan><tspan class="cls-150" x="5" y="36">体</tspan><tspan class="cls-2" x="14.96" y="36">が</tspan><tspan x="24.97" y="36">調査</tspan><tspan class="cls-143" x="44.97" y="36">者</tspan><tspan class="cls-102" x="54.03" y="36">ら</tspan><tspan class="cls-150" x="63.53" y="36">の</tspan><tspan x="73.49" y="36">解</tspan><tspan class="cls-106" x="83.49" y="36">釈</tspan><tspan class="cls-111" x="93.13" y="36">を</tspan><tspan class="cls-72" x="102.66" y="36">経</tspan><tspan class="cls-55" x="112.36" y="36">て</tspan><tspan class="cls-17" x="121.83" y="36">折</tspan><tspan class="cls-50" x="130.87" y="36">り</tspan><tspan class="cls-83" x="139.81" y="36">紙</tspan><tspan class="cls-150" x="149.78" y="36">の</tspan><tspan x="159.74" y="36">展開</tspan><tspan class="cls-46" x="179.74" y="36">図</tspan><tspan class="cls-99" x="189.61" y="36">へ</tspan><tspan class="cls-156" x="198.95" y="36">と</tspan><tspan x="207.94" y="36">変</tspan><tspan class="cls-35" x="217.94" y="36">換</tspan><tspan class="cls-159" x="227.26" y="36">さ</tspan><tspan class="cls-2" x="236.16" y="36">れ</tspan><tspan class="cls-153" x="246.17" y="36">た</tspan><tspan class="cls-82" x="255.97" y="36">。</tspan><tspan class="cls-160" x="260.71" y="36">そ</tspan><tspan class="cls-150" x="270.12" y="36">の</tspan><tspan x="280.08" y="36">調</tspan><tspan class="cls-46" x="290.08" y="36">査</tspan><tspan class="cls-163" x="299.95" y="36">か</tspan><tspan class="cls-111" x="309.02" y="36">ら</tspan><tspan class="cls-145" x="318.55" y="36">、</tspan><tspan x="323.55" y="36">物</tspan><tspan class="cls-83" x="333.55" y="36">体</tspan><tspan class="cls-150" x="343.52" y="36">の</tspan><tspan class="cls-78" x="353.48" y="36">多</tspan><tspan class="cls-76" x="362.46" y="36">く</tspan><tspan class="cls-2" x="370.85" y="36">が</tspan><tspan x="380.86" y="36">座</tspan><tspan class="cls-24" x="390.86" y="36">屈</tspan><tspan class="cls-144" x="399.94" y="36">し</tspan><tspan class="cls-85" x="407.44" y="36">て</tspan><tspan class="cls-59" x="416.94" y="36">い</tspan><tspan class="cls-44" x="426.19" y="36">る</tspan><tspan class="cls-149" x="434.89" y="36">こ</tspan><tspan class="cls-21" x="443.54" y="36">と</tspan><tspan class="cls-156" x="451.88" y="36">と</tspan><tspan class="cls-82" x="460.86" y="36">、</tspan><tspan class="cls-160" x="465.61" y="36">そ</tspan><tspan class="cls-150" x="475.02" y="36">の</tspan><tspan x="5" y="54">座</tspan><tspan class="cls-106" x="15" y="54">屈</tspan><tspan class="cls-111" x="24.64" y="54">を</tspan><tspan x="34.17" y="54">発</tspan><tspan class="cls-35" x="44.17" y="54">生</tspan><tspan class="cls-134" x="53.49" y="54">さ</tspan><tspan class="cls-62" x="62.65" y="54">せ</tspan><tspan class="cls-6" x="71.93" y="54">る</tspan><tspan class="cls-143" x="81.24" y="54">何</tspan><tspan class="cls-84" x="90.3" y="54">ら</tspan><tspan class="cls-109" x="99.7" y="54">か</tspan><tspan class="cls-150" x="109.68" y="54">の</tspan><tspan x="119.64" y="54">”出来事</tspan><tspan class="cls-150" x="153.88" y="54">”</tspan><tspan class="cls-2" x="158.08" y="54">が</tspan><tspan x="168.09" y="54">存</tspan><tspan class="cls-118" x="178.09" y="54">在</tspan><tspan class="cls-92" x="188.11" y="54">す</tspan><tspan class="cls-44" x="196.95" y="54">る</tspan><tspan class="cls-149" x="205.65" y="54">こ</tspan><tspan class="cls-20" x="214.3" y="54">と</tspan><tspan class="cls-150" x="223.26" y="54">の</tspan><tspan class="cls-103" x="233.22" y="54">二</tspan><tspan class="cls-109" x="243.01" y="54">つ</tspan><tspan class="cls-2" x="252.99" y="54">が</tspan><tspan class="cls-143" x="263" y="54">彼</tspan><tspan class="cls-102" x="272.06" y="54">ら</tspan><tspan class="cls-150" x="281.56" y="54">の</tspan><tspan x="291.52" y="54">関</tspan><tspan class="cls-83" x="301.52" y="54">心</tspan><tspan class="cls-150" x="311.49" y="54">の</tspan><tspan x="321.45" y="54">中</tspan><tspan class="cls-95" x="331.45" y="54">心</tspan><tspan class="cls-3" x="340.8" y="54">と</tspan><tspan class="cls-164" x="349.48" y="54">な</tspan><tspan class="cls-6" x="358.47" y="54">る</tspan><tspan class="cls-145" x="367.78" y="54">。</tspan><tspan x="5" y="72">2022</tspan><tspan class="cls-83" x="27.21" y="72">年</tspan><tspan class="cls-125" x="37.18" y="72">の</tspan><tspan class="cls-136" x="45.45" y="72">２</tspan><tspan class="cls-66" x="53.58" y="72">月</tspan><tspan class="cls-145" x="63.09" y="72">、</tspan><tspan x="68.09" y="72">現</tspan><tspan class="cls-35" x="78.09" y="72">在</tspan><tspan class="cls-30" x="87.41" y="72">も</tspan><tspan class="cls-129" x="96.36" y="72">な</tspan><tspan class="cls-118" x="106.22" y="72">お</tspan><tspan x="116.24" y="72">進行</tspan><tspan class="cls-83" x="136.24" y="72">中</tspan><tspan class="cls-150" x="146.21" y="72">の</tspan><tspan x="156.17" y="72">第二作</tspan><tspan class="cls-64" x="186.17" y="72">品</tspan><tspan class="cls-71" x="195.9" y="72">で</tspan><tspan class="cls-15" x="205.78" y="72">は</tspan><tspan class="cls-145" x="215.63" y="72">、</tspan><tspan x="220.63" y="72">実</tspan><tspan class="cls-150" x="230.63" y="72">験</tspan><tspan class="cls-84" x="240.59" y="72">が</tspan><tspan class="cls-20" x="249.99" y="72">コ</tspan><tspan class="cls-41" x="258.95" y="72">ン</tspan><tspan class="cls-94" x="268.1" y="72">ピ</tspan><tspan class="cls-140" x="276.36" y="72">ュ</tspan><tspan class="cls-146" x="285.1" y="72">ー</tspan><tspan class="cls-43" x="294.01" y="72">タ</tspan><tspan class="cls-83" x="303.5" y="72">上</tspan><tspan class="cls-150" x="313.47" y="72">の</tspan><tspan x="323.43" y="72">仮想空</tspan><tspan class="cls-83" x="353.43" y="72">間</tspan><tspan class="cls-77" x="363.4" y="72">に</tspan><tspan class="cls-57" x="373.07" y="72">持</tspan><tspan class="cls-106" x="382.67" y="72">ち</tspan><tspan class="cls-117" x="392.31" y="72">込</tspan><tspan class="cls-41" x="401.59" y="72">ま</tspan><tspan class="cls-9" x="410.74" y="72">れ</tspan><tspan class="cls-96" x="420.8" y="72">、</tspan><tspan class="cls-88" x="425.16" y="72">よ</tspan><tspan class="cls-50" x="433.45" y="72">り</tspan><tspan x="442.39" y="72">意味</tspan><tspan class="cls-19" x="462.39" y="72">的</tspan><tspan class="cls-49" x="472.08" y="72">な</tspan><tspan x="5" y="90">考</tspan><tspan class="cls-150" x="15" y="90">察</tspan><tspan class="cls-72" x="24.96" y="90">が</tspan><tspan class="cls-17" x="34.66" y="90">な</tspan><tspan class="cls-159" x="43.7" y="90">さ</tspan><tspan class="cls-20" x="52.6" y="90">れ</tspan><tspan class="cls-85" x="61.56" y="90">て</tspan><tspan class="cls-59" x="71.07" y="90">い</tspan><tspan class="cls-6" x="80.32" y="90">る</tspan><tspan class="cls-145" x="89.63" y="90">。</tspan><tspan x="94.63" y="90">実空</tspan><tspan class="cls-64" x="114.63" y="90">間</tspan><tspan class="cls-89" x="124.36" y="90">で</tspan><tspan x="134.28" y="90">座</tspan><tspan class="cls-24" x="144.28" y="90">屈</tspan><tspan class="cls-30" x="153.35" y="90">し</tspan><tspan class="cls-153" x="162.3" y="90">た</tspan><tspan x="172.1" y="90">物</tspan><tspan class="cls-150" x="182.1" y="90">体</tspan><tspan class="cls-115" x="192.06" y="90">は</tspan><tspan class="cls-84" x="201.65" y="90">そ</tspan><tspan class="cls-99" x="211.05" y="90">れ</tspan><tspan class="cls-120" x="220.39" y="90">ま</tspan><tspan class="cls-165" x="229.31" y="90">で</tspan><tspan class="cls-14" x="239.2" y="90">に</tspan><tspan class="cls-7" x="248.81" y="90">自</tspan><tspan class="cls-150" x="258.75" y="90">分</tspan><tspan class="cls-2" x="268.71" y="90">が</tspan><tspan class="cls-16" x="278.72" y="90">被</tspan><tspan class="cls-5" x="287.59" y="90">っ</tspan><tspan class="cls-153" x="296.78" y="90">た</tspan><tspan x="306.58" y="90">変</tspan><tspan class="cls-83" x="316.58" y="90">形</tspan><tspan class="cls-150" x="326.55" y="90">の</tspan><tspan x="336.51" y="90">記</tspan><tspan class="cls-106" x="346.51" y="90">憶</tspan><tspan class="cls-111" x="356.15" y="90">を</tspan><tspan class="cls-118" x="365.68" y="90">有</tspan><tspan class="cls-92" x="375.7" y="90">す</tspan><tspan class="cls-6" x="384.55" y="90">る</tspan><tspan class="cls-145" x="393.86" y="90">。</tspan><tspan class="cls-147" x="398.86" y="90">例</tspan><tspan class="cls-111" x="408.49" y="90">え</tspan><tspan class="cls-22" x="418.02" y="90">ば</tspan><tspan class="cls-145" x="427.79" y="90">、</tspan><tspan x="432.79" y="90">紙</tspan><tspan class="cls-150" x="442.79" y="90">袋</tspan><tspan class="cls-49" x="452.75" y="90">は</tspan><tspan class="cls-153" x="462.47" y="90">か</tspan><tspan class="cls-118" x="472.27" y="90">つ</tspan><tspan class="cls-55" x="4.7" y="108">て</tspan><tspan class="cls-16" x="14.17" y="108">入</tspan><tspan class="cls-149" x="23.04" y="108">っ</tspan><tspan class="cls-85" x="31.68" y="108">て</tspan><tspan class="cls-110" x="41.19" y="108">い</tspan><tspan class="cls-153" x="51.12" y="108">た</tspan><tspan class="cls-83" x="60.92" y="108">物</tspan><tspan class="cls-150" x="70.89" y="108">の</tspan><tspan x="80.85" y="108">形</tspan><tspan class="cls-106" x="90.85" y="108">状</tspan><tspan class="cls-111" x="100.49" y="108">を</tspan><tspan class="cls-103" x="110.02" y="108">保</tspan><tspan class="cls-160" x="119.81" y="108">つ</tspan><tspan class="cls-149" x="129.22" y="108">こ</tspan><tspan class="cls-61" x="137.87" y="108">と</tspan><tspan class="cls-89" x="146.59" y="108">で</tspan><tspan class="cls-16" x="156.5" y="108">立</tspan><tspan class="cls-149" x="165.38" y="108">っ</tspan><tspan class="cls-85" x="174.02" y="108">て</tspan><tspan class="cls-59" x="183.53" y="108">い</tspan><tspan class="cls-6" x="192.77" y="108">る</tspan><tspan class="cls-145" x="202.08" y="108">。</tspan><tspan x="207.08" y="108">仮想空</tspan><tspan class="cls-64" x="237.08" y="108">間</tspan><tspan class="cls-89" x="246.82" y="108">で</tspan><tspan x="256.73" y="108">座</tspan><tspan class="cls-24" x="266.73" y="108">屈</tspan><tspan class="cls-30" x="275.81" y="108">し</tspan><tspan class="cls-153" x="284.76" y="108">た</tspan><tspan x="294.56" y="108">物</tspan><tspan class="cls-35" x="304.56" y="108">体</tspan><tspan class="cls-51" x="313.88" y="108">も</tspan><tspan class="cls-161" x="322.42" y="108">ま</tspan><tspan class="cls-153" x="331.56" y="108">た</tspan><tspan class="cls-145" x="341.36" y="108">、</tspan><tspan x="346.36" y="108">記</tspan><tspan class="cls-106" x="356.36" y="108">憶</tspan><tspan class="cls-111" x="366" y="108">を</tspan><tspan class="cls-118" x="375.53" y="108">有</tspan><tspan class="cls-92" x="385.55" y="108">す</tspan><tspan class="cls-139" x="394.4" y="108">る</tspan><tspan class="cls-58" x="403.69" y="108">だ</tspan><tspan class="cls-73" x="413.15" y="108">ろ</tspan><tspan class="cls-30" x="421.49" y="108">う</tspan><tspan class="cls-13" x="430.44" y="108">。</tspan><tspan class="cls-93" x="434.52" y="108">し</tspan><tspan class="cls-113" x="443.38" y="108">か</tspan><tspan class="cls-141" x="452.47" y="108">し</tspan><tspan class="cls-145" x="461.47" y="108">、</tspan><tspan x="466.47" y="108">仮想</tspan><tspan x="5" y="126">空</tspan><tspan class="cls-83" x="15" y="126">間</tspan><tspan class="cls-150" x="24.97" y="126">の</tspan><tspan x="34.93" y="126">出来</tspan><tspan class="cls-106" x="54.93" y="126">事</tspan><tspan class="cls-111" x="64.57" y="126">を</tspan><tspan x="74.1" y="126">記</tspan><tspan class="cls-24" x="84.1" y="126">憶</tspan><tspan class="cls-30" x="93.17" y="126">し</tspan><tspan class="cls-153" x="102.12" y="126">た</tspan><tspan x="111.92" y="126">物</tspan><tspan class="cls-95" x="121.92" y="126">体</tspan><tspan class="cls-30" x="131.27" y="126">と</tspan><tspan class="cls-15" x="140.22" y="126">は</tspan><tspan class="cls-109" x="150.07" y="126">何</tspan><tspan class="cls-58" x="160.05" y="126">だ</tspan><tspan class="cls-73" x="169.51" y="126">ろ</tspan><tspan class="cls-105" x="177.86" y="126">う</tspan><tspan class="cls-68" x="186.68" y="126">か</tspan><tspan class="cls-119" x="194.92" y="126">？</tspan><tspan class="cls-84" x="202.82" y="126">そ</tspan><tspan class="cls-118" x="212.22" y="126">れ</tspan><tspan class="cls-2" x="222.24" y="126">が</tspan><tspan x="232.25" y="126">実空</tspan><tspan class="cls-83" x="252.25" y="126">間</tspan><tspan class="cls-77" x="262.22" y="126">に</tspan><tspan x="271.89" y="126">出</tspan><tspan class="cls-35" x="281.89" y="126">力</tspan><tspan class="cls-159" x="291.21" y="126">さ</tspan><tspan class="cls-47" x="300.11" y="126">れ</tspan><tspan class="cls-44" x="309.44" y="126">る</tspan><tspan class="cls-149" x="318.14" y="126">こ</tspan><tspan class="cls-20" x="326.78" y="126">と</tspan><tspan class="cls-150" x="335.74" y="126">の</tspan><tspan x="345.7" y="126">意</tspan><tspan class="cls-150" x="355.7" y="126">味</tspan><tspan class="cls-15" x="365.66" y="126">は</tspan><tspan class="cls-109" x="375.51" y="126">何</tspan><tspan class="cls-58" x="385.49" y="126">だ</tspan><tspan class="cls-73" x="394.95" y="126">ろ</tspan><tspan class="cls-105" x="403.3" y="126">う</tspan><tspan class="cls-68" x="412.12" y="126">か</tspan><tspan class="cls-75" x="420.36" y="126">？</tspan><tspan x="5" y="144">本</tspan><tspan class="cls-150" x="15" y="144">作</tspan><tspan class="cls-15" x="24.96" y="144">は</tspan><tspan x="34.81" y="144">実</tspan><tspan class="cls-83" x="44.81" y="144">験</tspan><tspan class="cls-150" x="54.78" y="144">の</tspan><tspan x="64.74" y="144">過</tspan><tspan class="cls-64" x="74.74" y="144">程</tspan><tspan class="cls-89" x="84.47" y="144">で</tspan><tspan class="cls-117" x="94.39" y="144">生</tspan><tspan class="cls-41" x="103.67" y="144">ま</tspan><tspan class="cls-2" x="112.82" y="144">れ</tspan><tspan class="cls-123" x="122.83" y="144">た</tspan><tspan class="cls-102" x="132.27" y="144">オ</tspan><tspan class="cls-45" x="141.77" y="144">ー</tspan><tspan class="cls-100" x="151.06" y="144">プ</tspan><tspan class="cls-54" x="160.54" y="144">ン</tspan><tspan class="cls-80" x="169.96" y="144">エ</tspan><tspan class="cls-65" x="178.97" y="144">ン</tspan><tspan class="cls-101" x="187.53" y="144">ド</tspan><tspan class="cls-128" x="196.79" y="144">のプ</tspan><tspan class="cls-67" x="215.86" y="144">ロ</tspan><tspan class="cls-74" x="224.88" y="144">グ</tspan><tspan class="cls-56" x="234.05" y="144">ラ</tspan><tspan class="cls-132" x="242.63" y="144">ム</tspan><tspan class="cls-91" x="251.96" y="144">で</tspan><tspan class="cls-108" x="261.8" y="144">あ</tspan><tspan class="cls-6" x="270.98" y="144">る</tspan><tspan class="cls-145" x="280.29" y="144">。</tspan></text><text class="cls-32" transform="translate(543.21 114.1)"><tspan class="cls-126" x="0" y="0">キ</tspan><tspan class="cls-55" x="9.23" y="0">ー</tspan><tspan class="cls-66" x="18.7" y="0">ボ</tspan><tspan class="cls-138" x="28.21" y="0">ー</tspan><tspan class="cls-131" x="36.88" y="0">ド</tspan><tspan class="cls-18" x="45.52" y="0">と</tspan><tspan class="cls-81" x="54.28" y="0">マ</tspan><tspan class="cls-127" x="63.8" y="0">ウ</tspan><tspan class="cls-154" x="73.07" y="0">ス</tspan><tspan class="cls-89" x="82.51" y="0">で</tspan><tspan class="cls-42" x="92.43" y="0">各</tspan><tspan class="cls-128" x="102.18" y="0">ペ</tspan><tspan class="cls-79" x="111.72" y="0">ー</tspan><tspan class="cls-8" x="121.09" y="0">ジ</tspan><tspan x="130.83" y="0" xml:space="preserve"> /</tspan><tspan class="cls-104" x="138.49" y="0"> </tspan><tspan class="cls-38" x="140.99" y="0">シ</tspan><tspan class="cls-122" x="150.46" y="0">ー</tspan><tspan class="cls-86" x="159.39" y="0">ン</tspan><tspan class="cls-150" x="168.95" y="0">の</tspan><tspan x="178.91" y="0">操</tspan><tspan class="cls-106" x="188.91" y="0">作</tspan><tspan class="cls-111" x="198.55" y="0">を</tspan><tspan x="208.08" y="0">行</tspan><tspan class="cls-21" x="-.73" y="18">う</tspan><tspan class="cls-149" x="7.61" y="18">こ</tspan><tspan class="cls-30" x="16.25" y="18">と</tspan><tspan class="cls-8" x="25.2" y="18">が</tspan><tspan class="cls-84" x="34.94" y="18">で</tspan><tspan class="cls-39" x="44.34" y="18">き</tspan><tspan class="cls-4" x="52.7" y="18">ま</tspan><tspan class="cls-158" x="61.91" y="18">す</tspan><tspan class="cls-145" x="70.69" y="18">。</tspan><tspan class="cls-126" x="0" y="36">キ</tspan><tspan class="cls-55" x="9.23" y="36">ー</tspan><tspan class="cls-66" x="18.7" y="36">ボ</tspan><tspan class="cls-142" x="28.21" y="36">ー</tspan><tspan x="37.92" y="36">矢</tspan><tspan class="cls-128" x="47.92" y="36">印</tspan><tspan class="cls-126" x="57.46" y="36">キ</tspan><tspan class="cls-124" x="66.68" y="36">ー</tspan><tspan class="cls-111" x="76.03" y="36">を</tspan><tspan x="85.56" y="36">使</tspan><tspan class="cls-24" x="95.56" y="36">用</tspan><tspan class="cls-144" x="104.63" y="36">し</tspan><tspan class="cls-98" x="112.13" y="36">て</tspan><tspan class="cls-128" x="121.35" y="36">ペ</tspan><tspan class="cls-79" x="130.89" y="36">ー</tspan><tspan class="cls-8" x="140.26" y="36">ジ</tspan><tspan class="cls-104" x="150" y="36">/</tspan><tspan class="cls-38" x="154.46" y="36">シ</tspan><tspan class="cls-122" x="163.93" y="36">ー</tspan><tspan class="cls-86" x="172.86" y="36">ン</tspan><tspan class="cls-150" x="182.42" y="36">の</tspan><tspan class="cls-17" x="192.38" y="36">切</tspan><tspan class="cls-50" x="201.42" y="36">り</tspan><tspan x="210.36" y="36">替</tspan><tspan class="cls-151" x=".09" y="54">え</tspan><tspan class="cls-111" x="9.19" y="54">を</tspan><tspan class="cls-116" x="18.72" y="54">行</tspan><tspan class="cls-127" x="28.76" y="54">い</tspan><tspan class="cls-4" x="38.02" y="54">ま</tspan><tspan class="cls-158" x="47.23" y="54">す</tspan><tspan class="cls-145" x="56.01" y="54">。</tspan><tspan x=".46" y="72">鑑賞</tspan><tspan class="cls-150" x="20.46" y="72">後</tspan><tspan class="cls-15" x="30.42" y="72">は</tspan><tspan x="40.27" y="72">画</tspan><tspan class="cls-83" x="50.27" y="72">面</tspan><tspan class="cls-150" x="60.24" y="72">の</tspan><tspan x="70.2" y="72">半</tspan><tspan class="cls-150" x="80.2" y="72">分</tspan><tspan class="cls-2" x="90.16" y="72">が</tspan><tspan class="cls-19" x="100.17" y="72">異</tspan><tspan class="cls-164" x="109.86" y="72">な</tspan><tspan class="cls-6" x="118.85" y="72">る</tspan><tspan x="128.16" y="72">背景</tspan><tspan class="cls-83" x="148.16" y="72">色</tspan><tspan class="cls-107" x="158.13" y="72">の</tspan><tspan class="cls-128" x="167.84" y="72">ペ</tspan><tspan class="cls-79" x="177.38" y="72">ー</tspan><tspan class="cls-8" x="186.75" y="72">ジ</tspan><tspan class="cls-104" x="196.49" y="72">/</tspan><tspan class="cls-38" x="200.95" y="72">シ</tspan><tspan class="cls-142" x="210.42" y="72">ー</tspan><tspan class="cls-86" x="-.32" y="90">ン</tspan><tspan class="cls-77" x="9.24" y="90">に</tspan><tspan class="cls-24" x="18.91" y="90">戻</tspan><tspan class="cls-144" x="27.98" y="90">し</tspan><tspan class="cls-130" x="35.48" y="90">て</tspan><tspan class="cls-152" x="43.93" y="90">く</tspan><tspan class="cls-126" x="52.34" y="90">だ</tspan><tspan class="cls-78" x="61.57" y="90">さ</tspan><tspan class="cls-109" x="70.55" y="90">い</tspan><tspan class="cls-145" x="80.53" y="90">。</tspan></text><g><text></text><text class="cls-33" transform="translate(372.89 382.74)"><tspan class="cls-27" x="0" y="0">シ</tspan><tspan class="cls-25" x="7.61" y="0">ー</tspan><tspan class="cls-29" x="14.77" y="0">ン</tspan><tspan class="cls-28" x="21.07" y="0">１</tspan><tspan class="cls-26" x="27.75" y="0">:</tspan><tspan class="cls-34" x=".15" y="18">説明室</tspan></text><text class="cls-33"><tspan class="cls-26"><tspan class="cls-66" x="564.9" y="382.7">シ</tspan><tspan class="cls-30" x="572.51" y="382.7">ー</tspan><tspan class="cls-147" x="579.67" y="382.7">ン</tspan><tspan x="587.38" y="382.7">3:</tspan></tspan><tspan class="cls-34"><tspan x="564.64" y="400.7">眺望室</tspan></tspan></text><text class="cls-33"><tspan class="cls-26"><tspan class="cls-66" x="660.72" y="382.7">シ</tspan><tspan class="cls-30" x="668.33" y="382.7">ー</tspan><tspan class="cls-147" x="675.49" y="382.7">ン</tspan><tspan x="683.19" y="382.7">4:</tspan></tspan><tspan class="cls-34"><tspan x="660.46" y="400.7">彫刻室</tspan></tspan></text><text class="cls-33"><tspan class="cls-26"><tspan class="cls-66" x="469.09" y="382.7">シ</tspan><tspan class="cls-30" x="476.7" y="382.7">ー</tspan><tspan class="cls-147" x="483.86" y="382.7">ン</tspan><tspan x="491.56" y="382.7">2:</tspan></tspan><tspan class="cls-34"><tspan x="468.82" y="400.7">実験室</tspan></tspan></text></g><text class="cls-32" transform="translate(804.1 114.1)"><tspan x="0" y="0">←/→</tspan><tspan class="cls-81" x="-.23" y="18">マ</tspan><tspan class="cls-127" x="9.3" y="18">ウ</tspan><tspan class="cls-49" x="18.56" y="18">ス</tspan><tspan class="cls-166" x="28.28" y="18">中</tspan><tspan class="cls-156" x="38.04" y="18">ボ</tspan><tspan class="cls-53" x="47.03" y="18">タ</tspan><tspan class="cls-115" x="55.74" y="18">ン</tspan><tspan class="cls-81" x="-.23" y="36">マ</tspan><tspan class="cls-127" x="9.3" y="36">ウ</tspan><tspan class="cls-49" x="18.56" y="36">ス</tspan><tspan class="cls-166" x="28.28" y="36">右</tspan><tspan class="cls-156" x="38.04" y="36">ボ</tspan><tspan class="cls-53" x="47.03" y="36">タ</tspan><tspan class="cls-115" x="55.74" y="36">ン</tspan><tspan class="cls-81" x="-.23" y="54">マ</tspan><tspan class="cls-127" x="9.3" y="54">ウ</tspan><tspan class="cls-49" x="18.56" y="54">ス</tspan><tspan class="cls-166" x="28.28" y="54">右</tspan><tspan class="cls-156" x="38.04" y="54">ボ</tspan><tspan class="cls-53" x="47.03" y="54">タ</tspan><tspan class="cls-115" x="55.74" y="54">ン</tspan><tspan x="65.33" y="54" xml:space="preserve"> + SHIFT</tspan><tspan class="cls-81" x="-.23" y="72">マ</tspan><tspan class="cls-127" x="9.3" y="72">ウ</tspan><tspan class="cls-157" x="18.56" y="72">ス</tspan><tspan class="cls-121" x="27.37" y="72">ク</tspan><tspan class="cls-52" x="35.79" y="72">リ</tspan><tspan class="cls-87" x="43.74" y="72">ッ</tspan><tspan class="cls-135" x="51.99" y="72">ク</tspan><tspan class="cls-88" x="-.64" y="108">よ</tspan><tspan class="cls-50" x="7.65" y="108">り</tspan><tspan x="16.59" y="108">詳</tspan><tspan class="cls-19" x="26.59" y="108">細</tspan><tspan class="cls-49" x="36.28" y="108">な</tspan><tspan x="46" y="108">操</tspan><tspan class="cls-83" x="56" y="108">作</tspan><tspan class="cls-58" x="65.97" y="108">に</tspan><tspan class="cls-9" x="75.42" y="108">つ</tspan><tspan class="cls-31" x="85.48" y="108">い</tspan><tspan class="cls-36" x="95.17" y="108">て</tspan><tspan class="cls-15" x="104.59" y="108">は</tspan><tspan x="114.44" y="108">各画</tspan><tspan class="cls-106" x="134.44" y="108">面</tspan><tspan class="cls-133" x="144.08" y="108">を</tspan><tspan class="cls-137" x="153.11" y="108">ご</tspan><tspan class="cls-78" x="163.15" y="108">覧</tspan><tspan class="cls-152" x="172.13" y="108">く</tspan><tspan class="cls-126" x="180.55" y="108">だ</tspan><tspan class="cls-78" x="189.78" y="108">さ</tspan><tspan class="cls-109" x="198.75" y="108">い</tspan><tspan class="cls-145" x="208.74" y="108">。</tspan></text><text class="cls-32" transform="translate(970.53 114.1)"><tspan class="cls-128" x="0" y="0">ペ</tspan><tspan class="cls-79" x="9.54" y="0">ー</tspan><tspan class="cls-8" x="18.91" y="0">ジ</tspan><tspan x="28.65" y="0">遷移</tspan><tspan x="-25.66" y="18">拡大/</tspan><tspan class="cls-102" x="-.85" y="18"> </tspan><tspan class="cls-157" x="1.5" y="18">ス</tspan><tspan class="cls-163" x="10.31" y="18">ク</tspan><tspan class="cls-63" x="19.38" y="18">ロ</tspan><tspan class="cls-69" x="28.78" y="18">ー</tspan><tspan class="cls-23" x="38.44" y="18">ル</tspan><tspan class="cls-101" x="-8.52" y="36">カ</tspan><tspan class="cls-1" x=".74" y="36">メ</tspan><tspan class="cls-114" x="9.27" y="36">ラ</tspan><tspan class="cls-150" x="18.69" y="36">の</tspan><tspan x="28.65" y="36">回転</tspan><tspan class="cls-101" x="-8.52" y="54">カ</tspan><tspan class="cls-1" x=".74" y="54">メ</tspan><tspan class="cls-114" x="9.27" y="54">ラ</tspan><tspan class="cls-150" x="18.69" y="54">の</tspan><tspan x="28.65" y="54">移動</tspan><tspan x="28.65" y="72">選択</tspan></text><line class="cls-10" x1="23.68" y1="402.64" x2="52.02" y2="402.64"/><line class="cls-10" x1="990.37" y1="402.64" x2="1018.72" y2="402.64"/><line class="cls-12" x1="23.68" y1="402.64" x2="1018.72" y2="402.64"/></g><g id="_Layer_"><text class="cls-32" transform="translate(22.8 78.67)"><tspan x="0" y="0">―</tspan></text><text class="cls-32" transform="translate(543.67 78.67)"><tspan x="0" y="0">―</tspan></text><text class="cls-32" transform="translate(804.67 78.67)"><tspan x="0" y="0">―</tspan></text></g></svg>